<svg width="24" height="24" viewBox="0 0 24 24" fill="none" xmlns="http://www.w3.org/2000/svg">
<rect width="24" height="24" fill="white"/>
<path d="M11.9956 2.5C14.76 2.5 17 4.244 17 6.388V9.5H15.0978V6.388C15.0978 5.06 13.7022 3.98 11.9956 3.98C10.2889 3.98 8.89333 5.06 8.89333 6.388V9.5H7V6.388C7 4.244 9.23111 2.5 11.9956 2.5Z" fill="black"/>
<path d="M17.8333 10.5C18.4773 10.5 19 10.9889 19 11.5951V20.3951C19 21.0111 18.4773 21.5 17.8333 21.5H6.16667C5.52267 21.5 5 21.0111 5 20.3951V11.5951C5 10.9889 5.52267 10.5 6.16667 10.5H17.8333Z" fill="black"/>
</svg>
